<?xml version="1.0" encoding="UTF-8"?> <svg xmlns="http://www.w3.org/2000/svg" clip-rule="evenodd" fill-rule="evenodd" stroke-linejoin="round" stroke-miterlimit="2" viewBox="0 0 285 78"><path d="m43.32 3.533 12.732 21.895-28.123 48.857h-25.341zm40.898 70.752h-25.39l-15.417-26.884h25.387zm144.853-26.884v-25.746l21.046 18.406v-16.732h4.36v25.541l-21.051-18.344v16.875zm-66.129-20.529-3.551 1.761c-.663-.956-1.283-1.58-1.892-1.874-.622-.335-1.42-.499-2.41-.499-1.2 0-2.197.288-3.012.87-.794.555-1.193 1.257-1.191 2.105 0 1.192 1.051 2.132 3.136 2.843l2.882.994c2.343.767 4.054 1.751 5.15 2.88 1.1 1.147 1.623 2.538 1.623 4.21 0 2.206-.879 4.051-2.66 5.473-1.771 1.472-4.001 2.198-6.643 2.198-2.506 0-4.58-.615-6.202-1.869-1.623-1.256-2.611-2.991-3.02-5.225l4.411-.815c.21 1.424.544 2.381 1.058 2.929.888 1.032 2.216 1.561 3.927 1.561 1.369 0 2.486-.367 3.38-1.145.905-.751 1.346-1.72 1.346-2.88 0-.465-.067-.9-.255-1.275-.125-.407-.372-.754-.698-1.084-.318-.31-.767-.643-1.287-.922-.52-.294-1.142-.543-1.865-.829l-2.783-.964c-3.973-1.387-5.928-3.422-5.928-6.11 0-1.812.833-3.305 2.483-4.518 1.647-1.235 3.712-1.864 6.181-1.862 3.322 0 5.947 1.35 7.82 4.047zm-21.747 20.529h-4.349v-24.072h4.348zm39.562 0v-24.072h4.353c1.931 0 3.469.107 4.617.363 1.157.242 2.132.683 2.924 1.249.819.639 1.444 1.395 1.928 2.33.5.899.742 1.846.742 2.79 0 1.724-.804 3.181-2.387 4.38 1.547.434 2.742 1.199 3.628 2.293.909 1.076 1.352 2.321 1.352 3.785 0 1.865-.793 3.455-2.397 4.763-.953.803-2.031 1.367-3.227 1.664-1.314.309-2.949.455-4.928.455zm-79.019-5.83h-12.345l-3.21 5.83h-4.704l14.298-25.624 13.777 25.624h-4.766zm116.685 0h-12.363l-3.213 5.83h-4.707l14.277-25.624 13.801 25.624h-4.79zm-99.213-6.753-7.959-11.488h4.962l5.523 8.131 5.777-8.131h5l-8.307 11.488 8.732 12.583h-4.884l-6.385-9.225-6.6 9.225h-4.929zm145.028-1.878 11.248-9.61h5.801l-13.044 10.906 13.134 13.165h-5.839l-10.392-10.714-.908.753v9.961h-4.366v-24.071h4.366zm-79.128 11.034h2.696c1.986 0 3.434-.317 4.358-.95.965-.707 1.462-1.588 1.462-2.647 0-1.047-.497-1.923-1.421-2.65-.914-.657-2.531-1.03-4.889-1.03h-2.206zm-85.138-5.828-4.279-8.197-4.489 8.197zm116.68 0-4.295-8.197-4.508 8.197zm-31.542-4.485h1.38c1.615 0 2.814-.294 3.56-.894.745-.601 1.132-1.478 1.132-2.628s-.387-2.015-1.155-2.578c-.785-.606-1.898-.901-3.375-.901h-1.542z" fill="#800000" fill-rule="nonzero"></path></svg> 