<?xml version="1.0" encoding="UTF-8"?> <svg xmlns="http://www.w3.org/2000/svg" xmlns:xlink="http://www.w3.org/1999/xlink" xmlns:xodm="http://www.corel.com/coreldraw/odm/2003" xml:space="preserve" width="1650px" height="538px" version="1.1" style="shape-rendering:geometricPrecision; text-rendering:geometricPrecision; image-rendering:optimizeQuality; fill-rule:evenodd; clip-rule:evenodd" viewBox="0 0 1474.66 481.35"> <defs> <style type="text/css"> .fil3 {fill:#FDBD3C;fill-rule:nonzero} .fil2 {fill:#F0563F;fill-rule:nonzero} .fil1 {fill:#4DB857;fill-rule:nonzero} .fil0 {fill:#517CBD;fill-rule:nonzero} </style> </defs> <g id="Layer_x0020_1"> <metadata id="CorelCorpID_0Corel-Layer"></metadata> <g id="_105553480676992"> <path class="fil0" d="M181.62 0l13.11 0c45.53,0.99 90.31,19.3 122.48,51.71 -11.88,12.13 -24,23.75 -35.63,35.88 -18.07,-16.33 -39.84,-28.95 -63.59,-33.4 -35.14,-7.43 -72.99,-0.75 -102.44,19.3 -32.16,21.03 -53.93,56.65 -58.64,94.76 -5.19,37.61 5.45,77.2 29.94,106.39 23.51,28.45 59.39,46.27 96.5,47.51 34.64,1.98 70.76,-8.66 96,-32.91 19.79,-17.07 28.95,-43.05 31.92,-68.29 -41.07,0 -82.15,0.25 -123.22,0l0 -50.97 172.95 0c8.91,54.68 -3.96,116.29 -45.53,155.38 -27.71,27.72 -66.06,44.05 -105.15,47.26 -37.86,3.71 -76.95,-3.46 -110.6,-21.77 -40.33,-21.53 -72.5,-57.9 -88.33,-100.7 -14.85,-39.34 -15.09,-83.88 -1.24,-123.47 12.62,-36.12 36.87,-68.04 68.04,-90.31 29.94,-22.02 66.31,-34.14 103.43,-36.37z"></path> <path class="fil1" d="M1173.79 12.87l52.95 0 0 353.32c-17.57,0 -35.39,0.25 -52.95,-0.25 0.25,-117.53 0,-235.3 0,-353.07z"></path> <path class="fil2" d="M486.2 182.35c-13.36,3.47 -25.74,11.14 -34.64,22.02 -24,28.7 -22.52,75.47 3.96,102.19 15.09,15.34 37.85,22.51 58.88,18.31 19.55,-3.47 36.62,-16.58 46.02,-33.9 16.33,-29.44 11.63,-70.02 -13.36,-93.03 -16.08,-14.85 -39.59,-21.03 -60.86,-15.59zm-7.43 -47.01c32.66,-6.18 68.04,0.74 95.01,20.29 24.5,17.32 41.57,44.54 46.77,74.23 6.68,34.39 -1.74,72 -24,99.21 -24,30.44 -63.34,46.77 -101.69,44.29 -35.14,-1.98 -69.28,-19.54 -90.07,-48.24 -23.5,-31.67 -29.19,-75.22 -16.33,-112.33 12.87,-39.84 49.24,-70.27 90.31,-77.45z"></path> <path class="fil3" d="M748.47 182.35c-13.37,3.47 -25.74,11.14 -34.64,21.78 -23.76,28.2 -22.77,74.22 2.72,101.19 15.09,16.08 38.6,24 60.37,19.55 19.3,-3.71 36.62,-16.58 46.02,-33.9 16.08,-29.69 11.38,-70.27 -13.86,-93.28 -16.08,-14.84 -39.58,-20.78 -60.61,-15.34zm-7.43 -47.01c37.36,-7.17 78.19,3.22 106.15,29.44 45.52,40.83 50.47,117.28 11.63,164.29 -23.51,29.7 -61.61,46.03 -99.22,44.29 -35.88,-0.99 -71.26,-18.8 -92.54,-48.24 -24,-32.42 -29.19,-76.95 -15.59,-114.81 13.61,-38.6 49.24,-68.04 89.57,-74.97z"></path> <path class="fil0" d="M1014.69 181.36c-15.09,2.48 -29.19,10.89 -38.84,22.52 -23.26,27.71 -23.26,72 0.25,99.21 13.36,16.09 34.88,24.99 55.67,22.77 19.54,-1.98 37.6,-14.35 47.25,-31.42 16.33,-28.95 13.61,-68.29 -8.41,-93.53 -13.61,-15.59 -35.38,-23.26 -55.92,-19.55zm-51.21 -31.67c28.45,-17.81 66.31,-22.76 96.99,-7.42 9.65,4.2 17.56,11.38 25.23,18.56 0.25,-6.68 0,-13.61 0.25,-20.54 16.58,0.25 33.16,0 49.98,0.25l0 218.23c-0.25,32.9 -8.66,67.79 -32.41,91.79 -25.98,26.47 -65.82,34.64 -101.69,29.2 -38.35,-5.69 -71.76,-33.65 -86.6,-69.04 14.84,-7.17 30.43,-12.86 45.77,-19.54 8.66,20.29 26.23,37.61 48.25,41.56 22.02,3.96 47.51,-1.48 61.86,-19.79 15.34,-18.8 15.34,-44.53 14.59,-67.55 -11.38,11.14 -24.49,21.04 -40.32,24.75 -34.4,9.65 -72.25,-2.23 -98.73,-25.49 -26.72,-23.26 -42.56,-59.13 -41.07,-94.76 0.74,-40.33 23.5,-79.18 57.9,-100.21l0 0z"></path> <path class="fil2" d="M1316.8 208.08c-8.41,12.13 -11.88,26.97 -11.63,41.57 35.88,-14.84 71.75,-29.69 107.63,-44.78 -5.94,-13.86 -20.29,-22.27 -34.89,-24.5 -23.5,-4.2 -48,8.41 -61.11,27.71zm-26.48 -45.77c29.7,-27.71 75.47,-37.11 113.57,-22.51 36.13,13.6 59.14,48 70.77,83.38 -53.7,22.27 -107.14,44.29 -160.83,66.55 7.42,14.11 18.8,26.97 34.14,32.17 21.53,7.67 47.26,4.95 65.32,-9.4 7.18,-5.45 12.87,-12.62 18.31,-19.55 13.61,9.16 27.22,18.06 40.83,27.22 -19.3,28.95 -51.71,49.24 -86.6,52.45 -38.6,4.7 -79.67,-10.14 -104.66,-40.33 -41.07,-47.5 -37.11,-127.18 9.16,-169.98l-0.01 0z"></path> </g> </g> </svg> 