<svg xmlns="http://www.w3.org/2000/svg" xmlns:xlink="http://www.w3.org/1999/xlink" xmlns:xodm="http://www.corel.com/coreldraw/odm/2003" xml:space="preserve" width="602px" height="602px" style="shape-rendering:geometricPrecision; text-rendering:geometricPrecision; image-rendering:optimizeQuality; fill-rule:evenodd; clip-rule:evenodd" viewBox="0 0 463.57 463.57"> <defs> <style type="text/css"> .fil2 {fill:#CCCCCC} .fil0 {fill:#E6E6E6} .fil1 {fill:#CCCCCC;fill-rule:nonzero} </style> </defs> <g id="Layer_x0020_1"> <metadata id="CorelCorpID_0Corel-Layer"></metadata> <rect class="fil0" width="463.57" height="463.57"></rect> <g id="_105553218888256"> <path class="fil1" d="M163.36 178.97l0 -20.39c0,-2.8 -1.36,-4.33 -4.24,-4.33l-87.69 0c-17.59,0 -24.62,8.3 -24.62,22.46l0 6.95c0,14.34 6.31,20.74 22.28,22.82l59.18 7.4c3.33,0.45 4.33,1.53 4.33,4.87l0 2.7c0,4.33 -1.27,5.87 -5.87,5.87l-78.75 0 0 25.62 87.86 0c21.84,0 28.96,-8.84 28.96,-25.08l0 -7.85c0,-14.88 -5.5,-21.29 -21.29,-23.45l-61.25 -8.57c-3.52,-0.54 -4.6,-1.09 -4.6,-4.87l0 -2.44c0,-3.16 1.26,-4.78 5.05,-4.78l52.05 0c1.08,0 1.63,0.54 1.63,1.62l0 10.92 1.08 0 25.89 -9.47z"></path> <path class="fil1" d="M239.22 228.4c-0.36,0.81 -0.9,1.08 -1.89,1.08l-1.44 0c-1,0 -1.54,-0.27 -1.9,-1.08l-36.35 -74.15 -32.93 0 0 1.08 49.07 94.45c1.18,2.34 2.26,3.16 5.42,3.16l34.28 0c2.79,0 4.06,-0.64 5.32,-3.16l49.43 -94.45 0 -1.08 -32.38 0 -36.63 74.15 0 0z"></path> <path class="fil2" d="M388.88 225.69c0,0.91 -0.54,1.63 -1.53,1.63l-46.73 0c-10.74,0 -14.79,-4.06 -14.79,-15.97l0 -17.41c0,-12 4.05,-15.7 14.79,-15.7l47.18 0c0.81,0 1.17,0.36 1.17,1.36l0 9.47 1.09 0 25.88 -9.47 0 -21.29c0,-2.71 -1.17,-4.06 -3.87,-4.06l-73.89 0c-29.4,0 -40.23,15.33 -40.23,39.15l0 20.39c0,23.81 10.83,39.15 40.23,39.15l74.25 0c2.43,0 3.42,-1.36 3.42,-3.79l0 -48.44c-15.15,0 -30.3,0 -45.46,0l0 20.02 18.49 -1.62 0 6.58 0 0z"></path> <path class="fil2" d="M79.64 261.96l298.51 0 0 -0.09 38.7 0 0 3.34c0.27,0.63 0.36,1.35 0.36,2.07l0 36.63c0,0.81 -0.09,1.44 -0.36,2.16l0 3.25 -38.7 0 0 0 -298.51 0 0 0 -33.28 0 0 -5.41 0 -36.63 0 -5.41 33.28 0 0 0.09zm72.62 35.27c-0.45,0.27 -0.9,0.45 -1.62,0.45l-13.8 0c-3.34,0 -5.87,-0.63 -7.49,-1.71 -1.8,-1.18 -2.71,-2.98 -2.71,-5.33l0 -15.15c0,-0.63 0.18,-1.08 0.63,-1.44 0.45,-0.27 1,-0.46 1.72,-0.46 0.72,0 1.26,0.19 1.62,0.46 0.45,0.36 0.72,0.81 0.72,1.44l0 15.06c0,1.09 0.45,1.9 1.27,2.44 0.99,0.54 2.43,0.81 4.42,0.81l13.62 0c0.72,0 1.17,0.18 1.62,0.54 0.36,0.27 0.63,0.82 0.63,1.45 0,0.54 -0.27,1.08 -0.63,1.44zm39.6 -4.24c0.82,-0.54 1.27,-1.26 1.27,-2.35l0 -10.01c0,-0.99 -0.45,-1.71 -1.27,-2.26 -0.9,-0.54 -2.34,-0.81 -4.24,-0.81l-7.12 0c-1.9,0 -3.34,0.27 -4.24,0.81 -0.81,0.55 -1.27,1.27 -1.27,2.26l0 10.01c0,1.09 0.46,1.81 1.27,2.35 0.9,0.54 2.34,0.81 4.24,0.81l7.12 0c1.9,0 3.34,-0.27 4.24,-0.81zm3.25 2.98c-1.71,1.17 -4.24,1.71 -7.58,1.71l-6.94 0c-3.34,0 -5.87,-0.54 -7.58,-1.71 -1.8,-1.18 -2.62,-2.89 -2.62,-5.23l0 -10.11c0,-2.34 0.82,-4.06 2.62,-5.23 1.62,-1.08 4.15,-1.62 7.4,-1.62l7.3 0c3.25,0 5.78,0.54 7.4,1.62 1.81,1.17 2.71,2.89 2.71,5.23l0 10.11c0,2.34 -0.9,4.05 -2.71,5.23zm47.36 0c-1.71,1.08 -4.24,1.71 -7.58,1.71l-7.39 0c-3.34,0 -5.87,-0.63 -7.58,-1.71 -1.8,-1.18 -2.71,-2.98 -2.71,-5.32l0 -10.2c0,-2.25 0.91,-3.97 2.71,-5.05 1.62,-1.08 4.15,-1.62 7.4,-1.62l7.66 0c0.73,0 1.27,0.09 1.63,0.45 0.45,0.36 0.63,0.81 0.63,1.44 0,0.63 -0.18,1.08 -0.63,1.44 -0.36,0.27 -0.9,0.45 -1.63,0.45l-7.66 0c-1.81,0 -3.25,0.27 -4.15,0.81 -0.81,0.46 -1.27,1.18 -1.27,2.17l0 10.01c0,1.09 0.46,1.9 1.27,2.44 0.99,0.54 2.43,0.81 4.42,0.81l7.12 0c1.99,0 3.43,-0.27 4.42,-0.81 0.82,-0.54 1.27,-1.35 1.27,-2.44l0 -6.22c0,-1.26 0.81,-1.99 2.34,-1.99 1.63,0 2.35,0.73 2.35,1.99l0 6.31c0,2.35 -0.9,4.15 -2.62,5.33l0 0zm43.57 -2.98c0.81,-0.54 1.27,-1.26 1.27,-2.35l0 -10.01c0,-0.99 -0.36,-1.71 -1.27,-2.26 -0.9,-0.54 -2.25,-0.81 -4.15,-0.81l-7.21 0c-1.9,0 -3.25,0.27 -4.15,0.81 -0.9,0.55 -1.27,1.27 -1.27,2.26l0 10.01c0,1.09 0.46,1.81 1.27,2.35 0.9,0.54 2.34,0.81 4.24,0.81l7.03 0c1.9,0 3.34,-0.27 4.24,-0.81l0 0zm3.25 2.98c-1.62,1.17 -4.15,1.71 -7.49,1.71l-7.03 0c-3.34,0 -5.87,-0.54 -7.49,-1.71 -1.8,-1.18 -2.71,-2.89 -2.71,-5.23l0 -10.11c0,-2.34 0.91,-4.06 2.62,-5.23 1.71,-1.08 4.15,-1.62 7.4,-1.62l7.39 0c3.25,0 5.69,0.54 7.4,1.62 1.71,1.17 2.62,2.89 2.62,5.23l0 10.11c0,2.34 -0.91,4.05 -2.71,5.23l0 0zm44.83 -11.19c1.9,0.99 2.8,2.44 2.8,4.42l0 2.62c0,1.98 -0.9,3.52 -2.8,4.42 -1.71,0.99 -4.33,1.44 -7.75,1.44l-13.35 0c-0.64,0 -1.18,-0.18 -1.63,-0.45 -0.36,-0.36 -0.63,-0.9 -0.63,-1.44 0,-0.63 0.27,-1.18 0.63,-1.45 0.45,-0.36 0.99,-0.54 1.63,-0.54l13.35 0c2.07,0 3.6,-0.18 4.6,-0.63 0.81,-0.36 1.26,-0.81 1.26,-1.53l0 -2.35c0,-0.63 -0.36,-1.08 -1.17,-1.44 -0.9,-0.45 -2.35,-0.63 -4.33,-0.63l-6.23 0c-3.06,0 -5.41,-0.45 -7.03,-1.27 -1.72,-0.9 -2.53,-2.34 -2.53,-4.15l0 -2.43c0,-1.9 0.9,-3.34 2.62,-4.24 1.62,-0.9 3.97,-1.35 7.12,-1.35l13.99 0c0.72,0 1.26,0.18 1.62,0.45 0.36,0.36 0.63,0.81 0.63,1.44 0,0.63 -0.27,1.08 -0.63,1.44 -0.36,0.27 -0.9,0.45 -1.62,0.45l-13.9 0c-1.8,0 -3.15,0.18 -4.06,0.63 -0.72,0.27 -1.08,0.73 -1.08,1.36l0 1.98c0,0.63 0.36,1.09 0.99,1.36 0.82,0.36 2.08,0.54 3.88,0.54l5.96 0c3.42,0 5.95,0.45 7.67,1.35l-0.01 0z"></path> </g> </g> </svg>