<svg xmlns="http://www.w3.org/2000/svg" xmlns:xlink="http://www.w3.org/1999/xlink" xmlns:xodm="http://www.corel.com/coreldraw/odm/2003" xml:space="preserve" width="274px" height="114px" style="shape-rendering:geometricPrecision; text-rendering:geometricPrecision; image-rendering:optimizeQuality; fill-rule:evenodd; clip-rule:evenodd" viewBox="0 0 41.11 17.19"> <defs> <style type="text/css"> .fil1 {fill:white} .fil0 {fill:white;fill-rule:nonzero} </style> </defs> <g id="Layer_x0020_1"> <metadata id="CorelCorpID_0Corel-Layer"></metadata> <path class="fil0" d="M12.97 2.74l0 -2.26c0,-0.31 -0.15,-0.48 -0.47,-0.48l-9.72 0c-1.95,0 -2.73,0.92 -2.73,2.49l0 0.77c0,1.59 0.7,2.3 2.47,2.53l6.56 0.82c0.37,0.05 0.48,0.17 0.48,0.54l0 0.3c0,0.48 -0.14,0.65 -0.65,0.65l-8.73 0 0 2.84 9.74 0c2.42,0 3.21,-0.98 3.21,-2.78l0 -0.87c0,-1.65 -0.61,-2.36 -2.36,-2.6l-6.79 -0.95c-0.39,-0.06 -0.51,-0.12 -0.51,-0.54l0 -0.27c0,-0.35 0.14,-0.53 0.56,-0.53l5.77 0c0.12,0 0.18,0.06 0.18,0.18l0 1.21 0.12 0 2.87 -1.05z"></path> <path class="fil0" d="M21.38 8.22c-0.04,0.09 -0.1,0.12 -0.21,0.12l-0.16 0c-0.11,0 -0.17,-0.03 -0.21,-0.12l-4.03 -8.22 -3.65 0 0 0.12 5.44 10.47c0.13,0.26 0.25,0.35 0.6,0.35l3.8 0c0.31,0 0.45,-0.07 0.59,-0.35l5.48 -10.47 0 -0.12 -3.59 0 -4.06 8.22z"></path> <path class="fil1" d="M37.97 7.92c0,0.1 -0.06,0.18 -0.17,0.18l-5.18 0c-1.19,0 -1.64,-0.45 -1.64,-1.77l0 -1.93c0,-1.33 0.45,-1.74 1.64,-1.74l5.23 0c0.09,0 0.13,0.04 0.13,0.15l0 1.05 0.12 0 2.87 -1.05 0 -2.36c0,-0.3 -0.13,-0.45 -0.43,-0.45l-8.19 0c-3.26,0 -4.46,1.7 -4.46,4.34l0 2.26c0,2.64 1.2,4.34 4.46,4.34l8.23 0c0.27,0 0.38,-0.15 0.38,-0.42l0 -5.37c-1.68,0 -3.36,0 -5.04,0l0 2.22 2.05 -0.18 0 0.73z"></path> <path class="fil1" d="M3.69 11.94l33.09 0 0 -0.01 4.29 0 0 0.37c0.03,0.07 0.04,0.15 0.04,0.23l0 4.06c0,0.09 -0.01,0.16 -0.04,0.24l0 0.36 -4.29 0 0 0 -33.09 0 0 0 -3.69 0 0 -0.6 0 -4.06 0 -0.6 3.69 0 0 0.01zm8.05 3.91c-0.05,0.03 -0.1,0.05 -0.18,0.05l-1.53 0c-0.37,0 -0.65,-0.07 -0.83,-0.19 -0.2,-0.13 -0.3,-0.33 -0.3,-0.59l0 -1.68c0,-0.07 0.02,-0.12 0.07,-0.16 0.05,-0.03 0.11,-0.05 0.19,-0.05 0.08,0 0.14,0.02 0.18,0.05 0.05,0.04 0.08,0.09 0.08,0.16l0 1.67c0,0.12 0.05,0.21 0.14,0.27 0.11,0.06 0.27,0.09 0.49,0.09l1.51 0c0.08,0 0.13,0.02 0.18,0.06 0.04,0.03 0.07,0.09 0.07,0.16 0,0.06 -0.03,0.12 -0.07,0.16zm4.39 -0.47c0.09,-0.06 0.14,-0.14 0.14,-0.26l0 -1.11c0,-0.11 -0.05,-0.19 -0.14,-0.25 -0.1,-0.06 -0.26,-0.09 -0.47,-0.09l-0.79 0c-0.21,0 -0.37,0.03 -0.47,0.09 -0.09,0.06 -0.14,0.14 -0.14,0.25l0 1.11c0,0.12 0.05,0.2 0.14,0.26 0.1,0.06 0.26,0.09 0.47,0.09l0.79 0c0.21,0 0.37,-0.03 0.47,-0.09zm0.36 0.33c-0.19,0.13 -0.47,0.19 -0.84,0.19l-0.77 0c-0.37,0 -0.65,-0.06 -0.84,-0.19 -0.2,-0.13 -0.29,-0.32 -0.29,-0.58l0 -1.12c0,-0.26 0.09,-0.45 0.29,-0.58 0.18,-0.12 0.46,-0.18 0.82,-0.18l0.81 0c0.36,0 0.64,0.06 0.82,0.18 0.2,0.13 0.3,0.32 0.3,0.58l0 1.12c0,0.26 -0.1,0.45 -0.3,0.58zm5.25 0c-0.19,0.12 -0.47,0.19 -0.84,0.19l-0.82 0c-0.37,0 -0.65,-0.07 -0.84,-0.19 -0.2,-0.13 -0.3,-0.33 -0.3,-0.59l0 -1.13c0,-0.25 0.1,-0.44 0.3,-0.56 0.18,-0.12 0.46,-0.18 0.82,-0.18l0.85 0c0.08,0 0.14,0.01 0.18,0.05 0.05,0.04 0.07,0.09 0.07,0.16 0,0.07 -0.02,0.12 -0.07,0.16 -0.04,0.03 -0.1,0.05 -0.18,0.05l-0.85 0c-0.2,0 -0.36,0.03 -0.46,0.09 -0.09,0.05 -0.14,0.13 -0.14,0.24l0 1.11c0,0.12 0.05,0.21 0.14,0.27 0.11,0.06 0.27,0.09 0.49,0.09l0.79 0c0.22,0 0.38,-0.03 0.49,-0.09 0.09,-0.06 0.14,-0.15 0.14,-0.27l0 -0.69c0,-0.14 0.09,-0.22 0.26,-0.22 0.18,0 0.26,0.08 0.26,0.22l0 0.7c0,0.26 -0.1,0.46 -0.29,0.59zm4.83 -0.33c0.09,-0.06 0.14,-0.14 0.14,-0.26l0 -1.11c0,-0.11 -0.04,-0.19 -0.14,-0.25 -0.1,-0.06 -0.25,-0.09 -0.46,-0.09l-0.8 0c-0.21,0 -0.36,0.03 -0.46,0.09 -0.1,0.06 -0.14,0.14 -0.14,0.25l0 1.11c0,0.12 0.05,0.2 0.14,0.26 0.1,0.06 0.26,0.09 0.47,0.09l0.78 0c0.21,0 0.37,-0.03 0.47,-0.09zm0.36 0.33c-0.18,0.13 -0.46,0.19 -0.83,0.19l-0.78 0c-0.37,0 -0.65,-0.06 -0.83,-0.19 -0.2,-0.13 -0.3,-0.32 -0.3,-0.58l0 -1.12c0,-0.26 0.1,-0.45 0.29,-0.58 0.19,-0.12 0.46,-0.18 0.82,-0.18l0.82 0c0.36,0 0.63,0.06 0.82,0.18 0.19,0.13 0.29,0.32 0.29,0.58l0 1.12c0,0.26 -0.1,0.45 -0.3,0.58zm4.97 -1.24c0.21,0.11 0.31,0.27 0.31,0.49l0 0.29c0,0.22 -0.1,0.39 -0.31,0.49 -0.19,0.11 -0.48,0.16 -0.86,0.16l-1.48 0c-0.07,0 -0.13,-0.02 -0.18,-0.05 -0.04,-0.04 -0.07,-0.1 -0.07,-0.16 0,-0.07 0.03,-0.13 0.07,-0.16 0.05,-0.04 0.11,-0.06 0.18,-0.06l1.48 0c0.23,0 0.4,-0.02 0.51,-0.07 0.09,-0.04 0.14,-0.09 0.14,-0.17l0 -0.26c0,-0.07 -0.04,-0.12 -0.13,-0.16 -0.1,-0.05 -0.26,-0.07 -0.48,-0.07l-0.69 0c-0.34,0 -0.6,-0.05 -0.78,-0.14 -0.19,-0.1 -0.28,-0.26 -0.28,-0.46l0 -0.27c0,-0.21 0.1,-0.37 0.29,-0.47 0.18,-0.1 0.44,-0.15 0.79,-0.15l1.55 0c0.08,0 0.14,0.02 0.18,0.05 0.04,0.04 0.07,0.09 0.07,0.16 0,0.07 -0.03,0.12 -0.07,0.16 -0.04,0.03 -0.1,0.05 -0.18,0.05l-1.54 0c-0.2,0 -0.35,0.02 -0.45,0.07 -0.08,0.03 -0.12,0.08 -0.12,0.15l0 0.22c0,0.07 0.04,0.12 0.11,0.15 0.09,0.04 0.23,0.06 0.43,0.06l0.66 0c0.38,0 0.66,0.05 0.85,0.15z"></path> </g> </svg>