<?xml version="1.0" encoding="UTF-8"?> <svg xmlns="http://www.w3.org/2000/svg" xmlns:xlink="http://www.w3.org/1999/xlink" width="465px" height="74px" viewBox="0 0 465 74" version="1.1"><title>Group</title><desc>Created with Sketch.</desc><g id="Page-1" stroke="none" stroke-width="1" fill="none" fill-rule="evenodd"><g id="Group" transform="translate(0.004814, -0.000002)" fill="#9AADAF" fill-rule="nonzero"><path d="M181.995186,3.50000173 C182.165186,2.84000173 182.255186,2.50000173 182.255186,2.41000173 C182.395186,1.67000173 181.995186,1.11000173 181.065186,0.700001733 C180.135186,0.290001733 178.065186,0.100001733 174.985186,0.100001733 C172.767605,-0.0221706641 170.544494,0.200477753 168.395186,0.760001733 C167.255186,1.20000173 166.605186,1.76000173 166.475186,2.52000173 L154.705186,50.0000017 L141.835186,5.48000173 C141.715897,4.94175021 141.520606,4.42321699 141.255186,3.94000173 C140.986872,3.49752777 140.588846,3.14838191 140.115186,2.94000173 C139.444512,2.62182349 138.729888,2.40608807 137.995186,2.30000173 C136.826191,2.13340921 135.64582,2.05984497 134.465186,2.08000173 C133.251294,2.05828183 132.03757,2.1318409 130.835186,2.30000173 C130.099186,2.39240926 129.381204,2.59465792 128.705186,2.90000173 C128.239964,3.10162592 127.856057,3.45383436 127.615186,3.90000173 C127.388006,4.39355135 127.213701,4.90976003 127.095186,5.44000173 L114.315186,50.0000017 L102.575186,2.52000173 C102.219861,1.65326075 101.48007,1.00224439 100.575186,0.760001733 C99.4885195,0.320001733 97.3185195,0.100001733 94.0651861,0.100001733 C90.9951861,0.100001733 88.9251861,0.300001733 87.9951861,0.700001733 C87.0651861,1.10000173 86.6651861,1.70000173 86.8051861,2.41000173 C86.8557297,2.70347375 86.9224987,2.99391911 87.0051861,3.28000173 C87.08529,3.6212591 87.1922911,3.95563752 87.3251861,4.28000173 L104.765186,71.2800017 C105.054211,72.0770968 105.67979,72.7063339 106.475186,73.0000017 C107.401853,73.4400017 109.401853,73.6600017 112.475186,73.6600017 C115.655186,73.6600017 117.765186,73.4400017 118.805186,73.0000017 C119.667666,72.7349695 120.358417,72.0848512 120.675186,71.2400017 L134.485186,25.7800017 L148.405186,71.2400017 C148.473981,71.6180538 148.655207,71.9665651 148.925186,72.2400017 C149.293003,72.5888413 149.733569,72.8518151 150.215186,73.0100017 C150.9897,73.2671693 151.791961,73.4316495 152.605186,73.5000017 C153.901289,73.6252553 155.2031,73.6820009 156.505186,73.6700017 C159.615186,73.6700017 161.645186,73.4500017 162.575186,73.0100017 C163.382921,72.7101517 164.013981,72.0644153 164.295186,71.2500017 L181.605186,4.71000173 C181.763082,4.31619821 181.893397,3.91188927 181.995186,3.50000173 Z" id="Path"></path><path d="M275.885186,25.1500017 C274.029012,23.0645314 271.747902,21.4005822 269.195186,20.2700017 C264.847531,18.3892886 259.977384,18.0955224 255.435186,19.4400017 C253.912586,19.9129134 252.428279,20.5012871 250.995186,21.2000017 C249.637728,21.907839 248.351765,22.7450546 247.155186,23.7000017 L247.155186,2.59000173 C247.155186,1.90000173 246.655186,1.31000173 245.645186,0.830001733 C244.635186,0.350001733 242.555186,0.100001733 239.435186,0.100001733 C236.315186,0.100001733 234.175186,0.340001733 233.205186,0.830001733 C232.235186,1.32000173 231.755186,1.90000173 231.755186,2.59000173 L231.755186,49.1900017 C227.185186,57.0000017 217.925186,61.7200017 207.995186,61.7200017 L207.995186,61.7200017 L207.695186,61.7200017 C204.81406,61.7445241 201.961873,61.1440636 199.335186,59.9600017 C196.62436,58.6577367 194.574924,56.289661 193.675186,53.4200017 C197.040536,53.3203461 200.388855,52.9018063 203.675186,52.1700017 C207.105845,51.4428091 210.422516,50.2554006 213.535186,48.6400017 C216.460136,47.1452356 219.041636,45.0575581 221.115186,42.5100017 C223.133201,39.9781958 224.195305,36.8166678 224.115186,33.5800017 C224.127803,31.5087948 223.68395,29.4602428 222.815186,27.5800017 C221.919562,25.6701597 220.566164,24.0110457 218.875186,22.7500017 C216.884346,21.2924417 214.649284,20.202002 212.275186,19.5300017 C209.259198,18.6657454 206.132183,18.251281 202.995186,18.3000017 C199.675432,18.2960424 196.377784,18.8400191 193.235186,19.9100017 C190.041464,20.9856699 187.118027,22.7390499 184.665186,25.0500017 C182.019577,27.5797615 179.949376,30.6492516 178.595186,34.0500017 C176.973088,38.2327254 176.194803,42.6951164 176.305186,47.1800017 C176.212159,51.1291225 176.937365,55.0547671 178.435186,58.7100017 C179.778811,61.8536538 181.832508,64.6432598 184.435186,66.8600017 C187.096212,69.0961525 190.191062,70.7576343 193.525186,71.7400017 C197.213032,72.8436816 201.045902,73.3864187 204.895186,73.3500017 C205.535186,73.3500017 206.145186,73.3500017 206.755186,73.3500017 C216.181635,73.0291714 225.181573,69.3433475 232.125186,62.9600017 C232.412142,63.8577775 232.84456,64.7023451 233.405186,65.4600017 C234.638217,67.0738211 236.173393,68.4323839 237.925186,69.4600017 C240.126625,70.7852796 242.503124,71.7951233 244.985186,72.4600017 C247.993596,73.29171 251.104129,73.6956754 254.225186,73.6600017 C257.688704,73.6543643 261.128956,73.0939306 264.415186,72.0000017 C267.763005,70.9095189 270.833861,69.1045377 273.415186,66.7100017 C276.176412,64.0946474 278.353957,60.9254503 279.805186,57.4100017 C281.534474,53.0721789 282.364591,48.4282869 282.245186,43.7600017 C282.308445,40.0993162 281.722729,36.4563669 280.515186,33.0000017 C279.485386,30.1125753 277.913937,27.4482381 275.885186,25.1500017 Z M192.705186,45.5000017 C192.712193,42.6981136 193.078514,39.9086928 193.795186,37.2000017 C194.313623,35.2222926 195.15493,33.3437127 196.285186,31.6400017 C197.140496,30.3553464 198.302069,29.3037448 199.665186,28.5800017 C200.852581,27.9667171 202.168771,27.6445246 203.505186,27.6400017 C204.836025,27.618654 206.121884,28.1215038 207.085186,29.0400017 C208.086188,29.9604555 208.63733,31.2707873 208.595186,32.6300017 C208.621438,34.4088255 208.172675,36.1624502 207.295186,37.7100017 C206.421442,39.2550777 205.215812,40.5870769 203.765186,41.6100017 C202.204156,42.7198648 200.489391,43.5957763 198.675186,44.2100017 C196.742506,44.8720779 194.7388,45.3050394 192.705186,45.5000017 L192.705186,45.5000017 Z M264.825186,54.0700017 C264.401096,56.0915047 263.593164,58.0128895 262.445186,59.7300017 C261.571678,61.0208485 260.370647,62.0562202 258.965186,62.7300017 C257.693068,63.3078277 256.312385,63.6078279 254.915186,63.6100017 C252.878757,63.6984449 250.881263,63.0326135 249.305186,61.7400017 C247.88146,60.5845829 247.075839,58.83291 247.125186,57.0000017 L247.125186,36.3600017 C247.136702,35.5531656 247.368371,34.7647983 247.795186,34.0800017 C248.276585,33.28633 248.892441,32.5824952 249.615186,32.0000017 C250.403712,31.3622917 251.279203,30.8403645 252.215186,30.4500017 C253.197045,30.0269171 254.256079,29.812386 255.325186,29.8200017 C256.650445,29.8209236 257.967043,30.0336048 259.225186,30.4500017 C260.537545,30.8820043 261.692714,31.6927099 262.545186,32.7800017 C263.606728,34.1741638 264.381637,35.764766 264.825186,37.4600017 C265.481573,39.9483756 265.781232,42.5173598 265.715186,45.0900017 C265.774267,48.1079816 265.475518,51.1223311 264.825186,54.0700017 L264.825186,54.0700017 Z" id="Shape"></path><path d="M294.785186,16.0000017 C297.691853,16.0000017 299.805186,15.4100017 301.125186,14.2300017 C302.435186,13.0600017 303.125186,11.0100017 303.125186,8.11000173 C303.125186,5.21000173 302.465186,3.23000173 301.125186,1.98000173 C299.785186,0.730001733 297.695186,0.100001733 294.785186,0.100001733 C291.875186,0.100001733 289.785186,0.720001733 288.455186,1.97000173 C287.125186,3.22000173 286.455186,5.26000173 286.455186,8.10000173 C286.455186,10.9400017 287.105186,13.1000017 288.455186,14.2200017 C289.805186,15.3400017 291.875186,16.0000017 294.785186,16.0000017 Z" id="Path"></path><path d="M463.995186,21.1000017 C463.341254,20.5549369 462.605579,20.116232 461.815186,19.8000017 C460.848911,19.4019965 459.843347,19.1070311 458.815186,18.9200017 C457.737801,18.7109875 456.642655,18.6071663 455.545186,18.6100017 C453.917887,18.5964696 452.307186,18.9377199 450.825186,19.6100017 C449.528822,20.1982686 448.292964,20.9116499 447.135186,21.7400017 C445.878241,22.6478031 444.727642,23.6944119 443.705186,24.8600017 C442.967781,23.2624074 442.119024,21.7186052 441.165186,20.2400017 C440.36862,19.1291937 439.047487,18.51798 437.685186,18.6300017 C436.569203,18.7016822 435.476763,18.9832739 434.465186,19.4600017 C433.118814,20.0252052 431.818255,20.6938728 430.575186,21.4600017 C429.400372,22.180968 428.286642,22.9970345 427.245186,23.9000017 C426.505038,24.4095019 426.0006,25.1949841 425.845186,26.0800017 C425.865482,26.5511515 426.029495,27.0048025 426.315186,27.3800017 C426.625186,27.8300017 426.955186,28.3300017 427.315186,28.8900017 C427.706584,29.5260204 428.04121,30.1952723 428.315186,30.8900017 C428.647113,31.8061338 428.806467,32.775825 428.785186,33.7500017 L428.785186,55.6100017 C424.785186,60.4300017 420.565186,63.1200017 418.295186,60.9800017 C417.923073,60.1652251 417.745073,59.2752238 417.775186,58.3800017 L417.775186,39.4800017 C417.775186,32.4933351 416.108519,27.2666684 412.775186,23.8000017 C409.441853,20.3333351 403.798519,18.6033351 395.845186,18.6100017 C393.685454,18.5990559 391.529421,18.7898849 389.405186,19.1800017 C387.587511,19.5120146 385.801152,19.9970746 384.065186,20.6300017 C382.711081,21.1169976 381.418888,21.7614158 380.215186,22.5500017 C379.442372,23.0205905 378.785998,23.6598713 378.295186,24.4200017 C377.578738,26.0280101 377.022711,27.702791 376.635186,29.4200017 C376.337422,30.5925779 376.156539,31.7917657 376.095186,33.0000017 C376.095186,34.0400017 376.545186,34.5600017 377.445186,34.5600017 C378.180484,34.4587237 378.887869,34.2104587 379.525186,33.8300017 C380.525186,33.3500017 381.685186,32.8300017 383.105186,32.1700017 C384.671291,31.4963571 386.285845,30.9414587 387.935186,30.5100017 C389.798465,30.0183131 391.718138,29.7728908 393.645186,29.7800017 C396.555186,29.7800017 398.695186,30.2500017 400.085186,31.1800017 C401.378277,31.9595173 402.16778,33.3601271 402.165186,34.8700017 C402.165186,35.6300017 401.535186,36.2900017 400.295186,36.8700017 C398.48088,37.5990332 396.602826,38.1580976 394.685186,38.5400017 C391.302772,39.3286027 387.964719,40.296638 384.685186,41.4400017 C382.057139,42.3286208 379.586503,43.6280673 377.365186,45.2900017 C375.463444,46.7258275 373.931141,48.5940713 372.895186,50.7400017 C371.835466,53.140602 371.323088,55.7468946 371.395186,58.3700017 C371.395186,58.5600017 371.395186,58.7500017 371.395186,58.9400017 C368.125186,61.8300017 365.075186,62.7800017 363.515186,60.2700017 C363.349504,59.6504611 363.268765,59.0112818 363.275186,58.3700017 L363.275186,32.7300017 C363.298845,30.7111271 362.89322,28.710271 362.085186,26.8600017 C361.32751,25.1534789 360.208408,23.6317733 358.805186,22.4000017 C357.359512,21.1526571 355.685113,20.1982841 353.875186,19.5900017 C351.851413,18.9122641 349.72937,18.5743593 347.595186,18.5900017 C345.796698,18.5899832 344.003298,18.7810557 342.245186,19.1600017 C340.561372,19.5157328 338.911789,20.0176343 337.315186,20.6600017 C335.870851,21.2366941 334.464676,21.9047105 333.105186,22.6600017 C332.007831,23.2959961 330.967316,24.0253603 329.995186,24.8400017 L329.365186,23.5900017 C328.777433,22.2755538 328.028341,21.0393827 327.135186,19.9100017 C326.336528,19.009603 325.166064,18.529602 323.965186,18.6100017 C322.849203,18.6816822 321.756763,18.9632739 320.745186,19.4400017 C319.398814,20.0052052 318.098255,20.6738728 316.855186,21.4400017 C315.681812,22.1584357 314.5712,22.9746688 313.535186,23.8800017 C312.789602,24.3859761 312.280888,25.1724983 312.125186,26.0600017 C312.145482,26.5311515 312.309495,26.9848025 312.595186,27.3600017 C312.905186,27.8100017 313.235186,28.3100017 313.595186,28.8700017 C313.982813,29.5081109 314.317275,30.1770346 314.595186,30.8700017 C314.923486,31.7868341 315.079441,32.7564648 315.055186,33.7300017 L315.155186,53.9500017 C310.395186,60.3900017 304.845186,64.0600017 302.675186,59.9500017 C302.553195,59.4187023 302.492797,58.8751212 302.495186,58.3300017 L302.495186,22.1400017 C302.495186,21.4500017 302.005186,20.8600017 301.035186,20.3700017 C300.065186,19.8800017 298.035186,19.6500017 294.805186,19.6500017 C291.575186,19.6500017 289.635186,19.8900017 288.625186,20.3700017 C287.615186,20.8500017 287.125186,21.4500017 287.125186,22.1400017 L287.125186,61.2900017 C287.125186,65.1700017 288.198519,68.1966684 290.345186,70.3700017 C292.566507,72.4934874 295.532432,73.6604676 298.605186,73.6200017 L298.605186,73.6200017 L298.975186,73.6200017 L299.385186,73.6200017 C299.693044,73.6165838 300.000355,73.5932014 300.305186,73.5500017 C305.943654,73.0316513 311.222529,70.5549673 315.225186,66.5500017 L315.225186,71.1600017 C315.225186,71.7900017 315.735186,72.3600017 316.735186,72.8800017 C317.735186,73.4000017 319.795186,73.6600017 322.915186,73.6600017 C326.035186,73.6600017 328.175186,73.4000017 329.145186,72.8800017 C330.115186,72.3600017 330.595186,71.7900017 330.595186,71.1600017 L330.415186,37.6200017 C330.488351,36.8117691 330.817677,36.0480126 331.355186,35.4400017 C332.044403,34.5147068 332.862729,33.6930127 333.785186,33.0000017 C334.809398,32.2269816 335.924349,31.5821903 337.105186,31.0800017 C338.268741,30.5698898 339.524732,30.3043958 340.795186,30.3000017 C342.722178,30.1751972 344.621327,30.8106405 346.085186,32.0700017 C347.338519,33.2500017 347.961853,35.0833351 347.955186,37.5700017 L347.955186,61.2900017 C347.955186,65.1700017 349.011853,68.1966684 351.125186,70.3700017 C353.125186,72.3700017 355.835186,73.4800017 359.335186,73.6200017 L359.335186,73.6200017 L359.765186,73.6200017 L360.115186,73.6200017 C360.275186,73.6200017 360.435186,73.6200017 360.595186,73.6200017 L360.905186,73.6200017 L361.065186,73.6200017 C366.056364,73.1809299 370.777935,71.163404 374.545186,67.8600017 C375.09192,68.5450867 375.701213,69.1778139 376.365186,69.7500017 C377.981622,71.1100683 379.855602,72.1303843 381.875186,72.7500017 C384.111007,73.4320282 386.437733,73.7692349 388.775186,73.7500017 C391.904373,73.7769624 395.00775,73.1821201 397.905186,72.0000017 C400.283099,71.0200063 402.546582,69.7826356 404.655186,68.3100017 C405.409771,69.3445319 406.320656,70.2554165 407.355186,71.0100017 C408.3167,71.7368196 409.360576,72.3477054 410.465186,72.8300017 C411.418689,73.2352964 412.43207,73.4818857 413.465186,73.5600017 L413.465186,73.6100017 L414.165186,73.6100017 L414.645186,73.6100017 C415.048816,73.6028973 415.450761,73.5560037 415.845186,73.4700017 C420.638756,72.9065432 425.146197,70.8935452 428.765186,67.7000017 L428.765186,70.0700017 C428.765186,70.7000017 429.265186,71.2700017 430.275186,71.7900017 C431.285186,72.3100017 433.335186,72.5700017 436.445186,72.5700017 C439.555186,72.5700017 441.715186,72.3100017 442.675186,71.7900017 C443.635186,71.2700017 444.135186,70.7000017 444.135186,70.0700017 L444.135186,37.5100017 C444.131931,36.6849231 444.309423,35.8691434 444.655186,35.1200017 C444.989474,34.3821391 445.445882,33.705979 446.005186,33.1200017 C446.575191,32.5285618 447.254368,32.053138 448.005186,31.7200017 C448.722892,31.3858999 449.503573,31.2086274 450.295186,31.2000017 C451.007222,31.1910013 451.712966,31.3341959 452.365186,31.6200017 C452.940404,31.8700486 453.495396,32.1642613 454.025186,32.5000017 C454.515186,32.8100017 454.945186,33.1100017 455.325186,33.3800017 C455.668856,33.6467971 456.090151,33.7942503 456.525186,33.8000017 C457.252109,33.7137369 457.919818,33.3566737 458.395186,32.8000017 C459.105901,32.0797992 459.773716,31.3184892 460.395186,30.5200017 C461.155186,29.5200017 461.865186,28.5200017 462.525186,27.5200017 C463.185186,26.5200017 463.735186,25.5200017 464.185186,24.6200017 C464.543846,24.0065792 464.771945,23.3256896 464.855186,22.6200017 C464.816562,22.0083273 464.499609,21.4481323 463.995186,21.1000017 Z M402.365186,58.3800017 C402.365186,59.3800017 401.645186,60.3800017 400.185186,61.5000017 C398.554973,62.6605102 396.584489,63.2446179 394.585186,63.1600017 C392.475882,63.2576277 390.39379,62.6526955 388.665186,61.4400017 C387.12146,60.254992 386.264058,58.3829347 386.375186,56.4400017 C386.358563,55.3275337 386.645516,54.231579 387.205186,53.2700017 C387.761789,52.3345527 388.483474,51.5078347 389.335186,50.8300017 C390.227035,50.1037619 391.204275,49.4892087 392.245186,49.0000017 C393.318519,48.5200017 394.408519,48.0700017 395.515186,47.6500017 C397.293191,46.750103 399.236198,46.2226669 401.225186,46.1000017 C401.539872,46.0517537 401.858727,46.1562279 402.083843,46.3813445 C402.30896,46.606461 402.413434,46.9253161 402.365186,47.2400017 L402.365186,58.3800017 Z" id="Shape"></path><path d="M87.9151861,48.5500017 C79.3551861,57.7300017 64.9951861,63.4900017 52.4751861,63.9400017 C51.9151861,63.9400017 51.3451861,63.9900017 50.7651861,63.9900017 C47.0110855,64.0199962 43.27344,63.4908615 39.6751861,62.4200017 C36.4251137,61.4615158 33.4085373,59.8408721 30.8151861,57.6600017 C28.2891665,55.4932617 26.2974525,52.7726215 24.9951861,49.7100017 C23.5397362,46.1455036 22.8350588,42.3191391 22.9251861,38.4700017 C22.8126734,34.0953466 23.5671722,29.741685 25.1451861,25.6600017 C26.4696769,22.3479491 28.4922375,19.3601531 31.0751861,16.9000017 C33.4671617,14.6530405 36.3150867,12.9476962 39.4251861,11.9000017 C42.4922961,10.863524 45.7076811,10.3332557 48.9451861,10.3300017 C51.9862256,10.2783891 55.0184218,10.6725746 57.9451861,11.5000017 C60.2607201,12.1493428 62.4393029,13.213223 64.3751861,14.6400017 C66.027087,15.8687047 67.3496467,17.4866934 68.2251861,19.3500017 C69.0699125,21.1841051 69.5033693,23.1807368 69.4951861,25.2000017 C69.5694403,28.3586545 68.5285113,31.4424951 66.5551861,33.9100017 C64.5351149,36.4013615 62.0183542,38.4447396 59.1651861,39.9100017 C56.127986,41.4844729 52.8920808,42.6415949 49.5451861,43.3500017 C46.3513114,44.0631017 43.0964147,44.4682895 39.8251861,44.5600017 C40.7010224,47.3600249 42.7001926,49.6706601 45.3451861,50.9400017 C47.9052989,52.0976774 50.6855469,52.6878405 53.4951861,52.6700017 L53.7951861,52.6700017 C62.9851861,52.6700017 76.7951861,45.6700017 84.8651861,37.0000017 L76.5651861,5.65000173 C75.6885538,2.32053504 72.6781257,8.22881345e-05 69.2351861,1.7325499e-06 L7.58518612,1.7325499e-06 C5.22989781,-0.00158861826 3.00769398,1.09176587 1.57174371,2.95869713 C0.135793431,4.82562839 -0.350726455,7.25398427 0.255186119,9.53000173 L15.7551861,68.1200017 C16.6389152,71.44898 19.6509058,73.7674741 23.0951861,73.7700017 L84.7351861,73.7700017 C87.0907682,73.7706593 89.3131461,72.677582 90.7505052,70.811365 C92.1878644,68.9451481 92.6772718,66.5173379 92.0751861,64.2400017 L87.9151861,48.5500017 Z" id="Path"></path><path d="M53.1451861,29.2500017 C53.999913,27.7240681 54.4346902,25.9987616 54.4051861,24.2500017 C54.4455822,22.928334 53.9090262,21.6544697 52.9351861,20.7600017 C51.9988704,19.8596679 50.7439398,19.3670447 49.4451861,19.3900017 C48.1410075,19.3941366 46.8562033,19.7059158 45.6951861,20.3000017 C44.367268,21.0124916 43.2368408,22.0432763 42.4051861,23.3000017 C41.304489,24.9664599 40.489943,26.8051032 39.9951861,28.7400017 C39.2949937,31.3865874 38.9387272,34.1123617 38.9351861,36.8500017 C40.9172692,36.6499966 42.8699648,36.2238929 44.7551861,35.5800017 C46.538711,34.9907698 48.2240349,34.1379959 49.7551861,33.0500017 C51.1440314,32.0404482 52.3000575,30.7446078 53.1451861,29.2500017 L53.1451861,29.2500017 Z" id="Path"></path></g></g></svg> 